<?xml version="1.0" standalone="no"?><svg xmlns="http://www.w3.org/2000/svg" viewBox="0 0 1440 320"><path fill="#0099ff" fill-opacity="1" d="M0,128L24,122.7C48,117,96,107,144,122.7C192,139,240,181,288,197.3C336,213,384,203,432,218.7C480,235,528,277,576,266.7C624,256,672,192,720,144C768,96,816,64,864,58.7C912,53,960,75,1008,90.7C1056,107,1104,117,1152,133.3C1200,149,1248,171,1296,170.7C1344,171,1392,149,1416,138.7L1440,128L1440,320L1416,320C1392,320,1344,320,1296,320C1248,320,1200,320,1152,320C1104,320,1056,320,1008,320C960,320,912,320,864,320C816,320,768,320,720,320C672,320,624,320,576,320C528,320,480,320,432,320C384,320,336,320,288,320C240,320,192,320,144,320C96,320,48,320,24,320L0,320Z"></path></svg>